# xmcd
#
# Track frame offsets: 
#        150
#        13015
#        32041
#        53888
#        74317
#        93680
#        108307
#        116170
#        147966
#        158121
#        176851
#        197887
#        206415
#        215679
#        228353
#        233869
#        237938
#        245418
#        264427
#
# Disc length: 3569 seconds
#
# Revision: 2
# Processed by: cddbd v1.5.2PL0 Copyright (c) Steve Scherf et al.
# Submitted via: ExactAudioCopyFreeDBPlugin 1.0
#
DISCID=170def13
DTITLE=魔法少女リリカルなのはA's - 魔法少女リリカルなのはA's　サウンドステージ01　第3.5話 「ドキドキ！お風呂場は熱き戦
DTITLE=場なの！？」
DYEAR=2005
DGENRE=Drama CD
TTITLE0=「仲良し四人組の放課後」
TTITLE1=「闇の書の主と守護騎士の午後」
TTITLE2=八神はやて(植田佳奈) - 愛しさと優しさと
TTITLE3=「なのは＆フェイト、帰宅」
TTITLE4=高町なのは(田村ゆかり) - BRAVE HEARTs
TTITLE5=「フェイトの決断…? 」
TTITLE6=「レッツゴー！ スーパー銭湯！」
TTITLE7=「八神家 おでんの時間、お風呂の時間」
TTITLE8=「なのは＆フェイト一同、銭湯体勢」
TTITLE9=「はやて＆守護騎士一同～脱いだらスゴイんです?」
TTITLE10=「お風呂でくつろぎタイム！」
TTITLE11=「エイミィ＆美由希、ちょっと一休み」
TTITLE12=「すずか＆はやて遭遇」
TTITLE13=「なのは＆フェイト ラブラブ洗いっこ」
TTITLE14=「それぞれの家路」
TTITLE15=「なのは＆フェイト 小さな決意」
TTITLE16=「シャマル、想う」
TTITLE17=シャマル(袖木涼香) - 旅の標
TTITLE18=「次回予告」
EXTD=YEAR: 2005
EXTT0=
EXTT1=
EXTT2=
EXTT3=
EXTT4=
EXTT5=
EXTT6=
EXTT7=
EXTT8=
EXTT9=
EXTT10=
EXTT11=
EXTT12=
EXTT13=
EXTT14=
EXTT15=
EXTT16=
EXTT17=
EXTT18=
PLAYORDER=
